<svg xmlns="http://www.w3.org/2000/svg" xmlns:xlink="http://www.w3.org/1999/xlink" width="500" zoomAndPan="magnify" viewBox="0 0 375 374.999991" height="500" preserveAspectRatio="xMidYMid meet" version="1.0"><defs><g/><clipPath id="d7b61f6961"><path d="M 56 131.742188 L 75 131.742188 L 75 151 L 56 151 Z M 56 131.742188 " clip-rule="nonzero"/></clipPath><clipPath id="9d35fecdd2"><path d="M 56 211 L 75 211 L 75 229.992188 L 56 229.992188 Z M 56 211 " clip-rule="nonzero"/></clipPath><clipPath id="82281691a3"><path d="M 16.519531 171 L 36 171 L 36 191 L 16.519531 191 Z M 16.519531 171 " clip-rule="nonzero"/></clipPath><clipPath id="130a04d6a8"><path d="M 95 171 L 114.769531 171 L 114.769531 191 L 95 191 Z M 95 171 " clip-rule="nonzero"/></clipPath><clipPath id="b5a0b75d9e"><path d="M 16.519531 131.742188 L 114.769531 131.742188 L 114.769531 229.992188 L 16.519531 229.992188 Z M 16.519531 131.742188 " clip-rule="nonzero"/></clipPath></defs><rect x="-37.5" width="450" fill="#ffffff" y="-37.499999" height="449.999989" fill-opacity="1"/><rect x="-37.5" width="450" fill="#181c31" y="-37.499999" height="449.999989" fill-opacity="1"/><g clip-path="url(#d7b61f6961)"><path fill="#006bff" d="M 74.871094 141.074219 C 74.871094 141.683594 74.808594 142.292969 74.691406 142.894531 C 74.570312 143.492188 74.394531 144.078125 74.160156 144.644531 C 73.925781 145.207031 73.636719 145.746094 73.296875 146.253906 C 72.957031 146.765625 72.570312 147.234375 72.136719 147.667969 C 71.703125 148.101562 71.234375 148.488281 70.722656 148.828125 C 70.214844 149.167969 69.675781 149.457031 69.109375 149.691406 C 68.542969 149.925781 67.960938 150.101562 67.359375 150.222656 C 66.757812 150.34375 66.152344 150.402344 65.539062 150.402344 C 64.929688 150.402344 64.320312 150.34375 63.71875 150.222656 C 63.121094 150.101562 62.535156 149.925781 61.96875 149.691406 C 61.40625 149.457031 60.867188 149.167969 60.359375 148.828125 C 59.847656 148.488281 59.378906 148.101562 58.945312 147.667969 C 58.511719 147.234375 58.125 146.765625 57.785156 146.253906 C 57.445312 145.746094 57.15625 145.207031 56.921875 144.644531 C 56.6875 144.078125 56.511719 143.492188 56.390625 142.894531 C 56.269531 142.292969 56.210938 141.683594 56.210938 141.074219 C 56.210938 140.460938 56.269531 139.851562 56.390625 139.253906 C 56.511719 138.652344 56.6875 138.070312 56.921875 137.503906 C 57.15625 136.9375 57.445312 136.398438 57.785156 135.890625 C 58.125 135.378906 58.511719 134.910156 58.945312 134.476562 C 59.378906 134.042969 59.847656 133.65625 60.359375 133.316406 C 60.867188 132.976562 61.40625 132.6875 61.96875 132.453125 C 62.535156 132.21875 63.121094 132.042969 63.71875 131.921875 C 64.320312 131.804688 64.929688 131.742188 65.539062 131.742188 C 66.152344 131.742188 66.757812 131.804688 67.359375 131.921875 C 67.960938 132.042969 68.542969 132.21875 69.109375 132.453125 C 69.675781 132.6875 70.214844 132.976562 70.722656 133.316406 C 71.234375 133.65625 71.703125 134.042969 72.136719 134.476562 C 72.570312 134.910156 72.957031 135.378906 73.296875 135.890625 C 73.636719 136.398438 73.925781 136.9375 74.160156 137.503906 C 74.394531 138.070312 74.570312 138.652344 74.691406 139.253906 C 74.808594 139.851562 74.871094 140.460938 74.871094 141.074219 Z M 74.871094 141.074219 " fill-opacity="1" fill-rule="nonzero"/></g><g clip-path="url(#9d35fecdd2)"><path fill="#006bff" d="M 74.871094 220.453125 C 74.871094 221.066406 74.808594 221.671875 74.691406 222.273438 C 74.570312 222.875 74.394531 223.457031 74.160156 224.023438 C 73.925781 224.589844 73.636719 225.128906 73.296875 225.636719 C 72.957031 226.144531 72.570312 226.617188 72.136719 227.050781 C 71.703125 227.484375 71.234375 227.871094 70.722656 228.210938 C 70.214844 228.550781 69.675781 228.839844 69.109375 229.074219 C 68.542969 229.308594 67.960938 229.484375 67.359375 229.605469 C 66.757812 229.722656 66.152344 229.78125 65.539062 229.78125 C 64.929688 229.78125 64.320312 229.722656 63.71875 229.605469 C 63.121094 229.484375 62.535156 229.308594 61.96875 229.074219 C 61.40625 228.839844 60.867188 228.550781 60.359375 228.210938 C 59.847656 227.871094 59.378906 227.484375 58.945312 227.050781 C 58.511719 226.617188 58.125 226.144531 57.785156 225.636719 C 57.445312 225.128906 57.15625 224.589844 56.921875 224.023438 C 56.6875 223.457031 56.511719 222.875 56.390625 222.273438 C 56.269531 221.671875 56.210938 221.066406 56.210938 220.453125 C 56.210938 219.839844 56.269531 219.234375 56.390625 218.632812 C 56.511719 218.03125 56.6875 217.449219 56.921875 216.882812 C 57.15625 216.316406 57.445312 215.78125 57.785156 215.269531 C 58.125 214.761719 58.511719 214.289062 58.945312 213.855469 C 59.378906 213.425781 59.847656 213.039062 60.359375 212.695312 C 60.867188 212.355469 61.40625 212.070312 61.96875 211.835938 C 62.535156 211.601562 63.121094 211.421875 63.71875 211.304688 C 64.320312 211.183594 64.929688 211.125 65.539062 211.125 C 66.152344 211.125 66.757812 211.183594 67.359375 211.304688 C 67.960938 211.421875 68.542969 211.601562 69.109375 211.835938 C 69.675781 212.070312 70.214844 212.355469 70.722656 212.695312 C 71.234375 213.039062 71.703125 213.425781 72.136719 213.855469 C 72.570312 214.289062 72.957031 214.761719 73.296875 215.269531 C 73.636719 215.78125 73.925781 216.316406 74.160156 216.882812 C 74.394531 217.449219 74.570312 218.03125 74.691406 218.632812 C 74.808594 219.234375 74.871094 219.839844 74.871094 220.453125 Z M 74.871094 220.453125 " fill-opacity="1" fill-rule="nonzero"/></g><g clip-path="url(#82281691a3)"><path fill="#006bff" d="M 35.179688 180.761719 C 35.179688 181.375 35.117188 181.984375 35 182.582031 C 34.878906 183.183594 34.703125 183.765625 34.46875 184.332031 C 34.234375 184.898438 33.945312 185.4375 33.605469 185.945312 C 33.265625 186.457031 32.878906 186.925781 32.445312 187.359375 C 32.011719 187.792969 31.542969 188.179688 31.03125 188.519531 C 30.523438 188.859375 29.984375 189.148438 29.417969 189.382812 C 28.855469 189.617188 28.269531 189.792969 27.667969 189.914062 C 27.070312 190.03125 26.460938 190.09375 25.851562 190.09375 C 25.238281 190.09375 24.628906 190.03125 24.03125 189.914062 C 23.429688 189.792969 22.847656 189.617188 22.28125 189.382812 C 21.714844 189.148438 21.175781 188.859375 20.667969 188.519531 C 20.15625 188.179688 19.6875 187.792969 19.253906 187.359375 C 18.820312 186.925781 18.433594 186.457031 18.09375 185.945312 C 17.753906 185.4375 17.464844 184.898438 17.230469 184.332031 C 16.996094 183.765625 16.820312 183.183594 16.699219 182.582031 C 16.582031 181.984375 16.519531 181.375 16.519531 180.761719 C 16.519531 180.152344 16.582031 179.542969 16.699219 178.941406 C 16.820312 178.34375 16.996094 177.757812 17.230469 177.191406 C 17.464844 176.628906 17.753906 176.089844 18.09375 175.582031 C 18.433594 175.070312 18.820312 174.601562 19.253906 174.167969 C 19.6875 173.734375 20.15625 173.347656 20.667969 173.007812 C 21.175781 172.667969 21.714844 172.378906 22.28125 172.144531 C 22.847656 171.910156 23.429688 171.734375 24.03125 171.613281 C 24.628906 171.496094 25.238281 171.433594 25.851562 171.433594 C 26.460938 171.433594 27.070312 171.496094 27.667969 171.613281 C 28.269531 171.734375 28.855469 171.910156 29.417969 172.144531 C 29.984375 172.378906 30.523438 172.667969 31.03125 173.007812 C 31.542969 173.347656 32.011719 173.734375 32.445312 174.167969 C 32.878906 174.601562 33.265625 175.070312 33.605469 175.582031 C 33.945312 176.089844 34.234375 176.628906 34.46875 177.191406 C 34.703125 177.757812 34.878906 178.34375 35 178.941406 C 35.117188 179.542969 35.179688 180.152344 35.179688 180.761719 Z M 35.179688 180.761719 " fill-opacity="1" fill-rule="nonzero"/></g><g clip-path="url(#130a04d6a8)"><path fill="#006bff" d="M 114.558594 180.761719 C 114.558594 181.375 114.5 181.984375 114.378906 182.582031 C 114.261719 183.183594 114.085938 183.765625 113.851562 184.332031 C 113.617188 184.898438 113.328125 185.4375 112.988281 185.945312 C 112.648438 186.457031 112.261719 186.925781 111.828125 187.359375 C 111.394531 187.792969 110.921875 188.179688 110.414062 188.519531 C 109.90625 188.859375 109.367188 189.148438 108.800781 189.382812 C 108.234375 189.617188 107.652344 189.792969 107.050781 189.914062 C 106.449219 190.03125 105.84375 190.09375 105.230469 190.09375 C 104.617188 190.09375 104.011719 190.03125 103.410156 189.914062 C 102.808594 189.792969 102.226562 189.617188 101.660156 189.382812 C 101.09375 189.148438 100.558594 188.859375 100.046875 188.519531 C 99.539062 188.179688 99.066406 187.792969 98.632812 187.359375 C 98.203125 186.925781 97.816406 186.457031 97.472656 185.945312 C 97.132812 185.4375 96.847656 184.898438 96.613281 184.332031 C 96.378906 183.765625 96.199219 183.183594 96.082031 182.582031 C 95.960938 181.984375 95.902344 181.375 95.902344 180.761719 C 95.902344 180.152344 95.960938 179.542969 96.082031 178.941406 C 96.199219 178.34375 96.378906 177.757812 96.613281 177.191406 C 96.847656 176.628906 97.132812 176.089844 97.472656 175.582031 C 97.816406 175.070312 98.203125 174.601562 98.632812 174.167969 C 99.066406 173.734375 99.539062 173.347656 100.046875 173.007812 C 100.558594 172.667969 101.09375 172.378906 101.660156 172.144531 C 102.226562 171.910156 102.808594 171.734375 103.410156 171.613281 C 104.011719 171.496094 104.617188 171.433594 105.230469 171.433594 C 105.84375 171.433594 106.449219 171.496094 107.050781 171.613281 C 107.652344 171.734375 108.234375 171.910156 108.800781 172.144531 C 109.367188 172.378906 109.90625 172.667969 110.414062 173.007812 C 110.921875 173.347656 111.394531 173.734375 111.828125 174.167969 C 112.261719 174.601562 112.648438 175.070312 112.988281 175.582031 C 113.328125 176.089844 113.617188 176.628906 113.851562 177.191406 C 114.085938 177.757812 114.261719 178.34375 114.378906 178.941406 C 114.5 179.542969 114.558594 180.152344 114.558594 180.761719 Z M 114.558594 180.761719 " fill-opacity="1" fill-rule="nonzero"/></g><g clip-path="url(#b5a0b75d9e)"><path fill="#ffffff" d="M 92.578125 206.152344 L 79.835938 193.410156 C 76.507812 190.082031 74.832031 185.53125 74.863281 180.824219 C 74.863281 180.785156 74.863281 180.742188 74.863281 180.703125 C 74.832031 175.996094 76.507812 171.441406 79.835938 168.117188 L 92.609375 155.34375 C 95.9375 152.015625 100.492188 150.375 105.199219 150.398438 C 107.652344 150.410156 110.109375 149.457031 111.953125 147.539062 C 115.316406 144.046875 115.402344 138.390625 112.140625 134.804688 C 108.53125 130.835938 102.382812 130.726562 98.632812 134.476562 C 96.785156 136.324219 95.878906 138.75 95.90625 141.171875 C 95.960938 145.863281 94.25 150.40625 90.929688 153.722656 L 78.1875 166.464844 C 74.859375 169.792969 70.304688 171.472656 65.601562 171.441406 C 65.5625 171.441406 65.519531 171.441406 65.480469 171.441406 C 60.773438 171.472656 56.21875 169.792969 52.894531 166.464844 L 40.121094 153.695312 C 36.792969 150.367188 35.152344 145.808594 35.175781 141.105469 C 35.1875 138.652344 34.234375 136.195312 32.316406 134.347656 C 28.824219 130.984375 23.167969 130.898438 19.582031 134.164062 C 15.613281 137.773438 15.503906 143.921875 19.253906 147.667969 C 21.101562 149.515625 23.527344 150.425781 25.949219 150.398438 C 30.640625 150.34375 35.183594 152.054688 38.5 155.371094 L 51.242188 168.117188 C 54.570312 171.441406 56.25 175.996094 56.21875 180.703125 C 56.21875 180.742188 56.21875 180.785156 56.21875 180.824219 C 56.25 185.53125 54.570312 190.082031 51.242188 193.410156 L 38.472656 206.183594 C 35.144531 209.507812 30.585938 211.148438 25.882812 211.128906 C 23.429688 211.117188 20.972656 212.070312 19.125 213.988281 C 15.761719 217.480469 15.675781 223.132812 18.941406 226.722656 C 22.550781 230.691406 28.695312 230.800781 32.445312 227.050781 C 34.292969 225.203125 35.203125 222.773438 35.175781 220.355469 C 35.121094 215.660156 36.832031 211.121094 40.148438 207.800781 L 52.894531 195.058594 C 56.21875 191.730469 60.773438 190.054688 65.480469 190.085938 C 65.519531 190.085938 65.558594 190.085938 65.601562 190.085938 C 70.304688 190.054688 74.859375 191.730469 78.1875 195.058594 L 90.960938 207.832031 C 94.285156 211.160156 95.925781 215.714844 95.90625 220.421875 C 95.894531 222.875 96.847656 225.332031 98.765625 227.175781 C 102.257812 230.539062 107.910156 230.625 111.5 227.363281 C 115.46875 223.753906 115.578125 217.605469 111.828125 213.855469 C 109.980469 212.007812 107.550781 211.101562 105.132812 211.128906 C 100.4375 211.183594 95.898438 209.472656 92.578125 206.152344 Z M 92.578125 206.152344 " fill-opacity="1" fill-rule="nonzero"/></g><g fill="#ffffff" fill-opacity="1"><g transform="translate(133.923891, 187.65427)"><g><path d="M 10.453125 -26.140625 L 0.171875 -26.140625 L 0.171875 -31.015625 L 26.484375 -31.015625 L 26.484375 -26.140625 L 16.21875 -26.140625 L 16.21875 0 L 10.453125 0 Z M 10.453125 -26.140625 "/></g></g></g><g fill="#ffffff" fill-opacity="1"><g transform="translate(169.45023, 187.65427)"><g><path d="M 24.28125 -7.171875 L 8.765625 -7.171875 L 5.71875 0 L -0.21875 0 L 13.734375 -31.015625 L 19.40625 -31.015625 L 33.40625 0 L 27.375 0 Z M 22.375 -11.6875 L 16.515625 -25.25 L 10.71875 -11.6875 Z M 22.375 -11.6875 "/></g></g></g><g fill="#ffffff" fill-opacity="1"><g transform="translate(211.487969, 187.65427)"><g><path d="M 4.15625 -31.015625 L 9.921875 -31.015625 L 9.921875 -4.875 L 26.140625 -4.875 L 26.140625 0 L 4.15625 0 Z M 4.15625 -31.015625 "/></g></g></g><g fill="#ffffff" fill-opacity="1"><g transform="translate(246.881422, 187.65427)"><g><path d="M 27.421875 -4.828125 L 27.421875 0 L 4.15625 0 L 4.15625 -31.015625 L 26.796875 -31.015625 L 26.796875 -26.171875 L 9.921875 -26.171875 L 9.921875 -18.125 L 24.890625 -18.125 L 24.890625 -13.375 L 9.921875 -13.375 L 9.921875 -4.828125 Z M 27.421875 -4.828125 "/></g></g></g><g fill="#ffffff" fill-opacity="1"><g transform="translate(285.419836, 187.65427)"><g><path d="M 31.71875 -31.015625 L 31.71875 0 L 26.984375 0 L 9.875 -21 L 9.875 0 L 4.15625 0 L 4.15625 -31.015625 L 8.90625 -31.015625 L 26 -10.015625 L 26 -31.015625 Z M 31.71875 -31.015625 "/></g></g></g><g fill="#ffffff" fill-opacity="1"><g transform="translate(330.159578, 187.65427)"><g><path d="M 10.453125 -26.140625 L 0.171875 -26.140625 L 0.171875 -31.015625 L 26.484375 -31.015625 L 26.484375 -26.140625 L 16.21875 -26.140625 L 16.21875 0 L 10.453125 0 Z M 10.453125 -26.140625 "/></g></g></g><g fill="#ffffff" fill-opacity="1"><g transform="translate(365.689269, 187.65427)"><g/></g></g><g fill="#ffffff" fill-opacity="1"><g transform="translate(191.62594, 220.868627)"><g><path d="M 8.421875 0.203125 C 6.992188 0.203125 5.707031 -0.109375 4.5625 -0.734375 C 3.414062 -1.359375 2.515625 -2.21875 1.859375 -3.3125 C 1.210938 -4.414062 0.890625 -5.660156 0.890625 -7.046875 C 0.890625 -8.429688 1.21875 -9.671875 1.875 -10.765625 C 2.53125 -11.867188 3.429688 -12.734375 4.578125 -13.359375 C 5.722656 -13.984375 7.007812 -14.296875 8.4375 -14.296875 C 9.59375 -14.296875 10.644531 -14.09375 11.59375 -13.6875 C 12.550781 -13.289062 13.359375 -12.707031 14.015625 -11.9375 L 12.328125 -10.359375 C 11.304688 -11.453125 10.050781 -12 8.5625 -12 C 7.59375 -12 6.722656 -11.785156 5.953125 -11.359375 C 5.191406 -10.941406 4.597656 -10.359375 4.171875 -9.609375 C 3.742188 -8.859375 3.53125 -8.003906 3.53125 -7.046875 C 3.53125 -6.097656 3.742188 -5.242188 4.171875 -4.484375 C 4.597656 -3.734375 5.191406 -3.144531 5.953125 -2.71875 C 6.722656 -2.300781 7.59375 -2.09375 8.5625 -2.09375 C 10.050781 -2.09375 11.304688 -2.648438 12.328125 -3.765625 L 14.015625 -2.15625 C 13.359375 -1.382812 12.550781 -0.796875 11.59375 -0.390625 C 10.632812 0.00390625 9.578125 0.203125 8.421875 0.203125 Z M 8.421875 0.203125 "/></g></g></g><g fill="#ffffff" fill-opacity="1"><g transform="translate(210.290067, 220.868627)"><g><path d="M 8.484375 0.203125 C 7.046875 0.203125 5.75 -0.109375 4.59375 -0.734375 C 3.4375 -1.359375 2.53125 -2.222656 1.875 -3.328125 C 1.21875 -4.441406 0.890625 -5.679688 0.890625 -7.046875 C 0.890625 -8.421875 1.21875 -9.660156 1.875 -10.765625 C 2.53125 -11.867188 3.4375 -12.734375 4.59375 -13.359375 C 5.75 -13.984375 7.046875 -14.296875 8.484375 -14.296875 C 9.921875 -14.296875 11.210938 -13.984375 12.359375 -13.359375 C 13.515625 -12.734375 14.421875 -11.867188 15.078125 -10.765625 C 15.742188 -9.671875 16.078125 -8.429688 16.078125 -7.046875 C 16.078125 -5.660156 15.742188 -4.414062 15.078125 -3.3125 C 14.421875 -2.21875 13.515625 -1.359375 12.359375 -0.734375 C 11.210938 -0.109375 9.921875 0.203125 8.484375 0.203125 Z M 8.484375 -2.09375 C 9.421875 -2.09375 10.265625 -2.300781 11.015625 -2.71875 C 11.765625 -3.144531 12.351562 -3.738281 12.78125 -4.5 C 13.21875 -5.257812 13.4375 -6.109375 13.4375 -7.046875 C 13.4375 -7.984375 13.21875 -8.832031 12.78125 -9.59375 C 12.351562 -10.351562 11.765625 -10.941406 11.015625 -11.359375 C 10.265625 -11.785156 9.421875 -12 8.484375 -12 C 7.535156 -12 6.6875 -11.785156 5.9375 -11.359375 C 5.1875 -10.941406 4.597656 -10.351562 4.171875 -9.59375 C 3.742188 -8.832031 3.53125 -7.984375 3.53125 -7.046875 C 3.53125 -6.109375 3.742188 -5.257812 4.171875 -4.5 C 4.597656 -3.738281 5.1875 -3.144531 5.9375 -2.71875 C 6.6875 -2.300781 7.535156 -2.09375 8.484375 -2.09375 Z M 8.484375 -2.09375 "/></g></g></g><g fill="#ffffff" fill-opacity="1"><g transform="translate(231.269471, 220.868627)"><g><path d="M 14.421875 -14.09375 L 14.421875 0 L 12.265625 0 L 4.484375 -9.546875 L 4.484375 0 L 1.890625 0 L 1.890625 -14.09375 L 4.046875 -14.09375 L 11.828125 -4.546875 L 11.828125 -14.09375 Z M 14.421875 -14.09375 "/></g></g></g><g fill="#ffffff" fill-opacity="1"><g transform="translate(251.604629, 220.868627)"><g><path d="M 14.421875 -14.09375 L 14.421875 0 L 12.265625 0 L 4.484375 -9.546875 L 4.484375 0 L 1.890625 0 L 1.890625 -14.09375 L 4.046875 -14.09375 L 11.828125 -4.546875 L 11.828125 -14.09375 Z M 14.421875 -14.09375 "/></g></g></g><g fill="#ffffff" fill-opacity="1"><g transform="translate(271.939788, 220.868627)"><g><path d="M 12.46875 -2.203125 L 12.46875 0 L 1.890625 0 L 1.890625 -14.09375 L 12.1875 -14.09375 L 12.1875 -11.90625 L 4.515625 -11.90625 L 4.515625 -8.234375 L 11.3125 -8.234375 L 11.3125 -6.078125 L 4.515625 -6.078125 L 4.515625 -2.203125 Z M 12.46875 -2.203125 "/></g></g></g><g fill="#ffffff" fill-opacity="1"><g transform="translate(289.456341, 220.868627)"><g><path d="M 8.421875 0.203125 C 6.992188 0.203125 5.707031 -0.109375 4.5625 -0.734375 C 3.414062 -1.359375 2.515625 -2.21875 1.859375 -3.3125 C 1.210938 -4.414062 0.890625 -5.660156 0.890625 -7.046875 C 0.890625 -8.429688 1.21875 -9.671875 1.875 -10.765625 C 2.53125 -11.867188 3.429688 -12.734375 4.578125 -13.359375 C 5.722656 -13.984375 7.007812 -14.296875 8.4375 -14.296875 C 9.59375 -14.296875 10.644531 -14.09375 11.59375 -13.6875 C 12.550781 -13.289062 13.359375 -12.707031 14.015625 -11.9375 L 12.328125 -10.359375 C 11.304688 -11.453125 10.050781 -12 8.5625 -12 C 7.59375 -12 6.722656 -11.785156 5.953125 -11.359375 C 5.191406 -10.941406 4.597656 -10.359375 4.171875 -9.609375 C 3.742188 -8.859375 3.53125 -8.003906 3.53125 -7.046875 C 3.53125 -6.097656 3.742188 -5.242188 4.171875 -4.484375 C 4.597656 -3.734375 5.191406 -3.144531 5.953125 -2.71875 C 6.722656 -2.300781 7.59375 -2.09375 8.5625 -2.09375 C 10.050781 -2.09375 11.304688 -2.648438 12.328125 -3.765625 L 14.015625 -2.15625 C 13.359375 -1.382812 12.550781 -0.796875 11.59375 -0.390625 C 10.632812 0.00390625 9.578125 0.203125 8.421875 0.203125 Z M 8.421875 0.203125 "/></g></g></g><g fill="#ffffff" fill-opacity="1"><g transform="translate(308.120462, 220.868627)"><g><path d="M 4.75 -11.890625 L 0.078125 -11.890625 L 0.078125 -14.09375 L 12.046875 -14.09375 L 12.046875 -11.890625 L 7.375 -11.890625 L 7.375 0 L 4.75 0 Z M 4.75 -11.890625 "/></g></g></g></svg>